<svg width="365" height="48" viewBox="0 0 365 48" fill="none" xmlns="http://www.w3.org/2000/svg">
<rect width="365" height="48" rx="8" fill="#00B265"/>
<path d="M37 24L42 29L52 19" stroke="white" stroke-width="1.5" stroke-linecap="round" stroke-linejoin="round"/>
<path d="M75.3189 16.4545H77.5206V26.0213C77.5206 27.0393 77.2815 27.9413 76.8033 28.7273C76.325 29.5085 75.6527 30.1241 74.7862 30.5739C73.9197 31.0189 72.9041 31.2415 71.7393 31.2415C70.5793 31.2415 69.5661 31.0189 68.6996 30.5739C67.8331 30.1241 67.1607 29.5085 66.6825 28.7273C66.2043 27.9413 65.9652 27.0393 65.9652 26.0213V16.4545H68.1598V25.8438C68.1598 26.5019 68.3042 27.0866 68.593 27.598C68.8866 28.1094 69.3009 28.5118 69.8359 28.8054C70.371 29.0942 71.0054 29.2386 71.7393 29.2386C72.478 29.2386 73.1148 29.0942 73.6499 28.8054C74.1896 28.5118 74.6016 28.1094 74.8857 27.598C75.1745 27.0866 75.3189 26.5019 75.3189 25.8438V16.4545ZM82.6644 24.5227V31H80.5408V20.0909H82.5792V21.8665H82.7141C82.9651 21.2888 83.3581 20.8248 83.8931 20.4744C84.4329 20.1241 85.1123 19.9489 85.9315 19.9489C86.6748 19.9489 87.3259 20.1051 87.8846 20.4176C88.4433 20.7254 88.8765 21.1847 89.1843 21.7955C89.4921 22.4062 89.646 23.1615 89.646 24.0611V31H87.5224V24.3168C87.5224 23.526 87.3164 22.9081 86.9045 22.4631C86.4925 22.0133 85.9267 21.7884 85.207 21.7884C84.7146 21.7884 84.2766 21.8949 83.8931 22.108C83.5143 22.321 83.2137 22.6335 82.9911 23.0455C82.7733 23.4527 82.6644 23.9451 82.6644 24.5227ZM92.494 31V20.0909H94.6175V31H92.494ZM93.5664 18.4077C93.1971 18.4077 92.8799 18.2846 92.6147 18.0384C92.3543 17.7874 92.2241 17.4891 92.2241 17.1435C92.2241 16.7931 92.3543 16.4948 92.6147 16.2486C92.8799 15.9976 93.1971 15.8722 93.5664 15.8722C93.9357 15.8722 94.2506 15.9976 94.511 16.2486C94.7762 16.4948 94.9087 16.7931 94.9087 17.1435C94.9087 17.4891 94.7762 17.7874 94.511 18.0384C94.2506 18.2846 93.9357 18.4077 93.5664 18.4077ZM97.4744 31V20.0909H99.527V21.8239H99.6406C99.8395 21.2367 100.19 20.7751 100.692 20.4389C101.198 20.098 101.771 19.9276 102.411 19.9276C102.543 19.9276 102.699 19.9323 102.879 19.9418C103.064 19.9512 103.208 19.9631 103.312 19.9773V22.0085C103.227 21.9848 103.076 21.9588 102.858 21.9304C102.64 21.8973 102.422 21.8807 102.205 21.8807C101.703 21.8807 101.255 21.9872 100.862 22.2003C100.474 22.4086 100.166 22.6998 99.9389 23.0739C99.7116 23.4432 99.598 23.8646 99.598 24.3381V31H97.4744ZM105.15 31V20.0909H107.189V21.8665H107.324C107.551 21.2652 107.922 20.7964 108.439 20.4602C108.955 20.1193 109.573 19.9489 110.292 19.9489C111.021 19.9489 111.632 20.1193 112.125 20.4602C112.622 20.8011 112.989 21.2699 113.225 21.8665H113.339C113.6 21.2841 114.014 20.8201 114.582 20.4744C115.15 20.1241 115.827 19.9489 116.613 19.9489C117.603 19.9489 118.41 20.259 119.035 20.8793C119.665 21.4995 119.98 22.4347 119.98 23.6847V31H117.856V23.8835C117.856 23.1449 117.655 22.6098 117.252 22.2784C116.85 21.947 116.369 21.7812 115.811 21.7812C115.119 21.7812 114.582 21.9943 114.199 22.4205C113.815 22.8419 113.623 23.384 113.623 24.0469V31H111.507V23.7486C111.507 23.1567 111.322 22.6809 110.953 22.321C110.583 21.9612 110.103 21.7812 109.511 21.7812C109.109 21.7812 108.737 21.8878 108.396 22.1009C108.06 22.3092 107.788 22.6004 107.579 22.9744C107.376 23.3485 107.274 23.7817 107.274 24.2741V31H105.15ZM127.528 31.2202C126.453 31.2202 125.527 30.9905 124.751 30.5312C123.979 30.0672 123.382 29.4162 122.961 28.5781C122.544 27.7353 122.336 26.7481 122.336 25.6165C122.336 24.4991 122.544 23.5142 122.961 22.6619C123.382 21.8097 123.969 21.1444 124.722 20.6662C125.48 20.188 126.365 19.9489 127.379 19.9489C127.994 19.9489 128.591 20.0507 129.168 20.2543C129.746 20.4579 130.264 20.7775 130.724 21.2131C131.183 21.6487 131.545 22.2145 131.81 22.9105C132.076 23.6018 132.208 24.4422 132.208 25.4318V26.1847H123.536V24.5938H130.127C130.127 24.035 130.013 23.5402 129.786 23.1094C129.559 22.6738 129.239 22.3305 128.827 22.0795C128.42 21.8286 127.942 21.7031 127.393 21.7031C126.796 21.7031 126.275 21.8499 125.83 22.1435C125.39 22.4323 125.049 22.8111 124.808 23.2798C124.571 23.7438 124.452 24.2481 124.452 24.7926V26.0355C124.452 26.7647 124.58 27.3849 124.836 27.8963C125.096 28.4077 125.459 28.7983 125.923 29.0682C126.387 29.3333 126.929 29.4659 127.549 29.4659C127.951 29.4659 128.318 29.4091 128.65 29.2955C128.981 29.1771 129.268 29.0019 129.509 28.7699C129.751 28.5379 129.935 28.2514 130.063 27.9105L132.073 28.2727C131.912 28.8646 131.623 29.383 131.207 29.8281C130.795 30.2685 130.276 30.6117 129.651 30.858C129.031 31.0994 128.323 31.2202 127.528 31.2202ZM143.032 31.2415C142.341 31.2415 141.716 31.1136 141.157 30.858C140.598 30.5975 140.156 30.2211 139.829 29.7287C139.507 29.2363 139.346 28.6326 139.346 27.9176C139.346 27.3021 139.464 26.7955 139.701 26.3977C139.938 26 140.257 25.6851 140.66 25.4531C141.062 25.2211 141.512 25.0459 142.009 24.9276C142.506 24.8092 143.013 24.7192 143.529 24.6577C144.183 24.5819 144.713 24.5204 145.12 24.473C145.527 24.4209 145.823 24.3381 146.008 24.2244C146.192 24.1108 146.285 23.9261 146.285 23.6705V23.6207C146.285 23.0005 146.11 22.5199 145.759 22.179C145.414 21.8381 144.897 21.6676 144.211 21.6676C143.496 21.6676 142.933 21.8262 142.521 22.1435C142.113 22.456 141.832 22.804 141.675 23.1875L139.68 22.733C139.916 22.0701 140.262 21.535 140.717 21.1278C141.176 20.7159 141.704 20.4176 142.3 20.233C142.897 20.0436 143.524 19.9489 144.183 19.9489C144.618 19.9489 145.08 20.0009 145.567 20.1051C146.06 20.2045 146.519 20.3892 146.945 20.6591C147.376 20.929 147.729 21.3149 148.004 21.8168C148.278 22.3139 148.415 22.9602 148.415 23.7557V31H146.342V29.5085H146.256C146.119 29.7831 145.913 30.053 145.638 30.3182C145.364 30.5833 145.011 30.8035 144.58 30.9787C144.149 31.1539 143.633 31.2415 143.032 31.2415ZM143.494 29.5369C144.081 29.5369 144.583 29.4209 144.999 29.1889C145.421 28.9569 145.74 28.6539 145.958 28.2798C146.181 27.901 146.292 27.4962 146.292 27.0653V25.6591C146.216 25.7348 146.069 25.8059 145.852 25.8722C145.638 25.9337 145.395 25.9882 145.12 26.0355C144.845 26.0781 144.578 26.1184 144.317 26.1562C144.057 26.1894 143.839 26.2178 143.664 26.2415C143.252 26.2936 142.876 26.3812 142.535 26.5043C142.199 26.6274 141.929 26.8049 141.725 27.0369C141.526 27.2642 141.427 27.5672 141.427 27.946C141.427 28.4716 141.621 28.8693 142.009 29.1392C142.397 29.4044 142.892 29.5369 143.494 29.5369ZM158.661 16.4545V31H156.537V16.4545H158.661ZM164.692 31.2415C164.001 31.2415 163.376 31.1136 162.817 30.858C162.258 30.5975 161.816 30.2211 161.489 29.7287C161.167 29.2363 161.006 28.6326 161.006 27.9176C161.006 27.3021 161.124 26.7955 161.361 26.3977C161.598 26 161.917 25.6851 162.32 25.4531C162.722 25.2211 163.172 25.0459 163.669 24.9276C164.167 24.8092 164.673 24.7192 165.189 24.6577C165.843 24.5819 166.373 24.5204 166.78 24.473C167.187 24.4209 167.483 24.3381 167.668 24.2244C167.853 24.1108 167.945 23.9261 167.945 23.6705V23.6207C167.945 23.0005 167.77 22.5199 167.419 22.179C167.074 21.8381 166.558 21.6676 165.871 21.6676C165.156 21.6676 164.593 21.8262 164.181 22.1435C163.774 22.456 163.492 22.804 163.336 23.1875L161.34 22.733C161.577 22.0701 161.922 21.535 162.377 21.1278C162.836 20.7159 163.364 20.4176 163.961 20.233C164.557 20.0436 165.185 19.9489 165.843 19.9489C166.278 19.9489 166.74 20.0009 167.228 20.1051C167.72 20.2045 168.179 20.3892 168.605 20.6591C169.036 20.929 169.389 21.3149 169.664 21.8168C169.938 22.3139 170.076 22.9602 170.076 23.7557V31H168.002V29.5085H167.917C167.779 29.7831 167.573 30.053 167.299 30.3182C167.024 30.5833 166.671 30.8035 166.24 30.9787C165.81 31.1539 165.293 31.2415 164.692 31.2415ZM165.154 29.5369C165.741 29.5369 166.243 29.4209 166.659 29.1889C167.081 28.9569 167.4 28.6539 167.618 28.2798C167.841 27.901 167.952 27.4962 167.952 27.0653V25.6591C167.876 25.7348 167.73 25.8059 167.512 25.8722C167.299 25.9337 167.055 25.9882 166.78 26.0355C166.506 26.0781 166.238 26.1184 165.978 26.1562C165.717 26.1894 165.499 26.2178 165.324 26.2415C164.912 26.2936 164.536 26.3812 164.195 26.5043C163.859 26.6274 163.589 26.8049 163.385 27.0369C163.186 27.2642 163.087 27.5672 163.087 27.946C163.087 28.4716 163.281 28.8693 163.669 29.1392C164.058 29.4044 164.552 29.5369 165.154 29.5369ZM180.321 16.4545V31H178.197V16.4545H180.321ZM183.178 31V20.0909H185.301V31H183.178ZM184.25 18.4077C183.881 18.4077 183.563 18.2846 183.298 18.0384C183.038 17.7874 182.908 17.4891 182.908 17.1435C182.908 16.7931 183.038 16.4948 183.298 16.2486C183.563 15.9976 183.881 15.8722 184.25 15.8722C184.619 15.8722 184.934 15.9976 185.195 16.2486C185.46 16.4948 185.592 16.7931 185.592 17.1435C185.592 17.4891 185.46 17.7874 185.195 18.0384C184.934 18.2846 184.619 18.4077 184.25 18.4077ZM196.333 22.7543L194.408 23.0952C194.328 22.849 194.2 22.6146 194.025 22.392C193.854 22.1695 193.622 21.9872 193.328 21.8452C193.035 21.7031 192.668 21.6321 192.228 21.6321C191.626 21.6321 191.124 21.767 190.722 22.0369C190.319 22.3021 190.118 22.6454 190.118 23.0668C190.118 23.4313 190.253 23.7249 190.523 23.9474C190.793 24.17 191.229 24.3523 191.83 24.4943L193.563 24.892C194.567 25.1241 195.315 25.4815 195.807 25.9645C196.3 26.4474 196.546 27.0748 196.546 27.8466C196.546 28.5 196.356 29.0824 195.978 29.5938C195.604 30.1004 195.08 30.4981 194.408 30.7869C193.74 31.0758 192.966 31.2202 192.086 31.2202C190.864 31.2202 189.867 30.9598 189.096 30.4389C188.324 29.9134 187.85 29.1676 187.675 28.2017L189.728 27.8892C189.855 28.4242 190.118 28.8291 190.516 29.1037C190.914 29.3736 191.432 29.5085 192.071 29.5085C192.767 29.5085 193.324 29.3641 193.74 29.0753C194.157 28.7817 194.365 28.4242 194.365 28.0028C194.365 27.6619 194.238 27.3755 193.982 27.1435C193.731 26.9115 193.345 26.7363 192.824 26.6179L190.978 26.2131C189.96 25.9811 189.207 25.6117 188.719 25.1051C188.236 24.5985 187.995 23.9569 187.995 23.1804C187.995 22.5365 188.175 21.973 188.534 21.4901C188.894 21.0071 189.391 20.6307 190.026 20.3608C190.66 20.0862 191.387 19.9489 192.206 19.9489C193.385 19.9489 194.313 20.2045 194.99 20.7159C195.667 21.2225 196.115 21.902 196.333 22.7543ZM203.973 20.0909V21.7955H198.014V20.0909H203.973ZM199.612 17.4773H201.736V27.7969C201.736 28.2088 201.797 28.5189 201.92 28.7273C202.044 28.9309 202.202 29.0705 202.396 29.1463C202.595 29.2173 202.811 29.2528 203.043 29.2528C203.213 29.2528 203.362 29.241 203.49 29.2173C203.618 29.1937 203.717 29.1747 203.788 29.1605L204.172 30.9148C204.049 30.9621 203.874 31.0095 203.646 31.0568C203.419 31.1089 203.135 31.1373 202.794 31.142C202.235 31.1515 201.714 31.0521 201.232 30.8438C200.749 30.6354 200.358 30.3134 200.06 29.8778C199.761 29.4422 199.612 28.8954 199.612 28.2372V17.4773ZM209.497 31.2415C208.806 31.2415 208.181 31.1136 207.622 30.858C207.063 30.5975 206.62 30.2211 206.294 29.7287C205.972 29.2363 205.811 28.6326 205.811 27.9176C205.811 27.3021 205.929 26.7955 206.166 26.3977C206.403 26 206.722 25.6851 207.125 25.4531C207.527 25.2211 207.977 25.0459 208.474 24.9276C208.971 24.8092 209.478 24.7192 209.994 24.6577C210.647 24.5819 211.178 24.5204 211.585 24.473C211.992 24.4209 212.288 24.3381 212.473 24.2244C212.657 24.1108 212.75 23.9261 212.75 23.6705V23.6207C212.75 23.0005 212.574 22.5199 212.224 22.179C211.878 21.8381 211.362 21.6676 210.676 21.6676C209.961 21.6676 209.397 21.8262 208.985 22.1435C208.578 22.456 208.297 22.804 208.14 23.1875L206.145 22.733C206.381 22.0701 206.727 21.535 207.181 21.1278C207.641 20.7159 208.169 20.4176 208.765 20.233C209.362 20.0436 209.989 19.9489 210.647 19.9489C211.083 19.9489 211.545 20.0009 212.032 20.1051C212.525 20.2045 212.984 20.3892 213.41 20.6591C213.841 20.929 214.194 21.3149 214.468 21.8168C214.743 22.3139 214.88 22.9602 214.88 23.7557V31H212.806V29.5085H212.721C212.584 29.7831 212.378 30.053 212.103 30.3182C211.829 30.5833 211.476 30.8035 211.045 30.9787C210.614 31.1539 210.098 31.2415 209.497 31.2415ZM209.958 29.5369C210.546 29.5369 211.047 29.4209 211.464 29.1889C211.886 28.9569 212.205 28.6539 212.423 28.2798C212.645 27.901 212.757 27.4962 212.757 27.0653V25.6591C212.681 25.7348 212.534 25.8059 212.316 25.8722C212.103 25.9337 211.859 25.9882 211.585 26.0355C211.31 26.0781 211.043 26.1184 210.782 26.1562C210.522 26.1894 210.304 26.2178 210.129 26.2415C209.717 26.2936 209.341 26.3812 209 26.5043C208.663 26.6274 208.394 26.8049 208.19 27.0369C207.991 27.2642 207.892 27.5672 207.892 27.946C207.892 28.4716 208.086 28.8693 208.474 29.1392C208.862 29.4044 209.357 29.5369 209.958 29.5369ZM227.086 31.2131C226.205 31.2131 225.419 30.9882 224.728 30.5384C224.041 30.0838 223.501 29.4375 223.108 28.5994C222.72 27.7566 222.526 26.7457 222.526 25.5668C222.526 24.3878 222.722 23.3793 223.115 22.5412C223.513 21.7031 224.058 21.0616 224.749 20.6165C225.44 20.1714 226.224 19.9489 227.1 19.9489C227.777 19.9489 228.321 20.0625 228.733 20.2898C229.15 20.5123 229.472 20.7727 229.699 21.071C229.931 21.3693 230.111 21.6321 230.239 21.8594H230.367V16.4545H232.49V31H230.417V29.3026H230.239C230.111 29.5346 229.926 29.7997 229.685 30.098C229.448 30.3963 229.122 30.6567 228.705 30.8793C228.288 31.1018 227.748 31.2131 227.086 31.2131ZM227.554 29.402C228.165 29.402 228.681 29.241 229.103 28.919C229.529 28.5923 229.851 28.1402 230.069 27.5625C230.291 26.9848 230.402 26.3125 230.402 25.5455C230.402 24.7879 230.293 24.125 230.076 23.5568C229.858 22.9886 229.538 22.5459 229.117 22.2287C228.695 21.9115 228.175 21.7528 227.554 21.7528C226.915 21.7528 226.382 21.9186 225.956 22.25C225.53 22.5814 225.208 23.0336 224.99 23.6065C224.777 24.1795 224.671 24.8258 224.671 25.5455C224.671 26.2746 224.78 26.9304 224.998 27.5128C225.215 28.0952 225.537 28.5568 225.963 28.8977C226.394 29.2339 226.925 29.402 227.554 29.402ZM240.223 31.2202C239.148 31.2202 238.223 30.9905 237.446 30.5312C236.674 30.0672 236.078 29.4162 235.656 28.5781C235.24 27.7353 235.031 26.7481 235.031 25.6165C235.031 24.4991 235.24 23.5142 235.656 22.6619C236.078 21.8097 236.665 21.1444 237.418 20.6662C238.175 20.188 239.061 19.9489 240.074 19.9489C240.689 19.9489 241.286 20.0507 241.864 20.2543C242.441 20.4579 242.96 20.7775 243.419 21.2131C243.878 21.6487 244.241 22.2145 244.506 22.9105C244.771 23.6018 244.903 24.4422 244.903 25.4318V26.1847H236.232V24.5938H242.822C242.822 24.035 242.709 23.5402 242.482 23.1094C242.254 22.6738 241.935 22.3305 241.523 22.0795C241.116 21.8286 240.637 21.7031 240.088 21.7031C239.491 21.7031 238.971 21.8499 238.526 22.1435C238.085 22.4323 237.744 22.8111 237.503 23.2798C237.266 23.7438 237.148 24.2481 237.148 24.7926V26.0355C237.148 26.7647 237.276 27.3849 237.531 27.8963C237.792 28.4077 238.154 28.7983 238.618 29.0682C239.082 29.3333 239.624 29.4659 240.244 29.4659C240.647 29.4659 241.014 29.4091 241.345 29.2955C241.677 29.1771 241.963 29.0019 242.205 28.7699C242.446 28.5379 242.631 28.2514 242.759 27.9105L244.768 28.2727C244.607 28.8646 244.319 29.383 243.902 29.8281C243.49 30.2685 242.972 30.6117 242.347 30.858C241.726 31.0994 241.018 31.2202 240.223 31.2202ZM257.254 31.2202C256.179 31.2202 255.254 30.9905 254.477 30.5312C253.705 30.0672 253.109 29.4162 252.688 28.5781C252.271 27.7353 252.062 26.7481 252.062 25.6165C252.062 24.4991 252.271 23.5142 252.688 22.6619C253.109 21.8097 253.696 21.1444 254.449 20.6662C255.206 20.188 256.092 19.9489 257.105 19.9489C257.721 19.9489 258.317 20.0507 258.895 20.2543C259.473 20.4579 259.991 20.7775 260.45 21.2131C260.91 21.6487 261.272 22.2145 261.537 22.9105C261.802 23.6018 261.935 24.4422 261.935 25.4318V26.1847H253.263V24.5938H259.854C259.854 24.035 259.74 23.5402 259.513 23.1094C259.286 22.6738 258.966 22.3305 258.554 22.0795C258.147 21.8286 257.669 21.7031 257.119 21.7031C256.523 21.7031 256.002 21.8499 255.557 22.1435C255.116 22.4323 254.776 22.8111 254.534 23.2798C254.297 23.7438 254.179 24.2481 254.179 24.7926V26.0355C254.179 26.7647 254.307 27.3849 254.562 27.8963C254.823 28.4077 255.185 28.7983 255.649 29.0682C256.113 29.3333 256.655 29.4659 257.276 29.4659C257.678 29.4659 258.045 29.4091 258.376 29.2955C258.708 29.1771 258.994 29.0019 259.236 28.7699C259.477 28.5379 259.662 28.2514 259.79 27.9105L261.8 28.2727C261.639 28.8646 261.35 29.383 260.933 29.8281C260.521 30.2685 260.003 30.6117 259.378 30.858C258.758 31.0994 258.05 31.2202 257.254 31.2202ZM272.466 22.7543L270.541 23.0952C270.46 22.849 270.333 22.6146 270.157 22.392C269.987 22.1695 269.755 21.9872 269.461 21.8452C269.168 21.7031 268.801 21.6321 268.36 21.6321C267.759 21.6321 267.257 21.767 266.855 22.0369C266.452 22.3021 266.251 22.6454 266.251 23.0668C266.251 23.4313 266.386 23.7249 266.656 23.9474C266.926 24.17 267.361 24.3523 267.963 24.4943L269.696 24.892C270.699 25.1241 271.448 25.4815 271.94 25.9645C272.432 26.4474 272.679 27.0748 272.679 27.8466C272.679 28.5 272.489 29.0824 272.11 29.5938C271.736 30.1004 271.213 30.4981 270.541 30.7869C269.873 31.0758 269.099 31.2202 268.218 31.2202C266.997 31.2202 266 30.9598 265.228 30.4389C264.457 29.9134 263.983 29.1676 263.808 28.2017L265.86 27.8892C265.988 28.4242 266.251 28.8291 266.649 29.1037C267.047 29.3736 267.565 29.5085 268.204 29.5085C268.9 29.5085 269.457 29.3641 269.873 29.0753C270.29 28.7817 270.498 28.4242 270.498 28.0028C270.498 27.6619 270.37 27.3755 270.115 27.1435C269.864 26.9115 269.478 26.7363 268.957 26.6179L267.11 26.2131C266.092 25.9811 265.34 25.6117 264.852 25.1051C264.369 24.5985 264.127 23.9569 264.127 23.1804C264.127 22.5365 264.307 21.973 264.667 21.4901C265.027 21.0071 265.524 20.6307 266.159 20.3608C266.793 20.0862 267.52 19.9489 268.339 19.9489C269.518 19.9489 270.446 20.2045 271.123 20.7159C271.8 21.2225 272.248 21.902 272.466 22.7543ZM275.013 35.0909V20.0909H277.087V21.8594H277.265C277.388 21.6321 277.566 21.3693 277.798 21.071C278.03 20.7727 278.352 20.5123 278.763 20.2898C279.175 20.0625 279.72 19.9489 280.397 19.9489C281.278 19.9489 282.064 20.1714 282.755 20.6165C283.446 21.0616 283.988 21.7031 284.381 22.5412C284.779 23.3793 284.978 24.3878 284.978 25.5668C284.978 26.7457 284.781 27.7566 284.388 28.5994C283.996 29.4375 283.456 30.0838 282.769 30.5384C282.083 30.9882 281.299 31.2131 280.418 31.2131C279.755 31.2131 279.213 31.1018 278.792 30.8793C278.375 30.6567 278.049 30.3963 277.812 30.098C277.575 29.7997 277.393 29.5346 277.265 29.3026H277.137V35.0909H275.013ZM277.094 25.5455C277.094 26.3125 277.206 26.9848 277.428 27.5625C277.651 28.1402 277.973 28.5923 278.394 28.919C278.816 29.241 279.332 29.402 279.942 29.402C280.577 29.402 281.107 29.2339 281.533 28.8977C281.96 28.5568 282.281 28.0952 282.499 27.5128C282.722 26.9304 282.833 26.2746 282.833 25.5455C282.833 24.8258 282.724 24.1795 282.506 23.6065C282.293 23.0336 281.971 22.5814 281.54 22.25C281.114 21.9186 280.582 21.7528 279.942 21.7528C279.327 21.7528 278.806 21.9115 278.38 22.2287C277.959 22.5459 277.639 22.9886 277.421 23.5568C277.203 24.125 277.094 24.7879 277.094 25.5455ZM292.059 31.2202C290.984 31.2202 290.058 30.9905 289.282 30.5312C288.51 30.0672 287.914 29.4162 287.492 28.5781C287.076 27.7353 286.867 26.7481 286.867 25.6165C286.867 24.4991 287.076 23.5142 287.492 22.6619C287.914 21.8097 288.501 21.1444 289.254 20.6662C290.011 20.188 290.897 19.9489 291.91 19.9489C292.525 19.9489 293.122 20.0507 293.7 20.2543C294.277 20.4579 294.796 20.7775 295.255 21.2131C295.714 21.6487 296.076 22.2145 296.342 22.9105C296.607 23.6018 296.739 24.4422 296.739 25.4318V26.1847H288.067V24.5938H294.658C294.658 24.035 294.545 23.5402 294.317 23.1094C294.09 22.6738 293.771 22.3305 293.359 22.0795C292.951 21.8286 292.473 21.7031 291.924 21.7031C291.327 21.7031 290.807 21.8499 290.362 22.1435C289.921 22.4323 289.58 22.8111 289.339 23.2798C289.102 23.7438 288.984 24.2481 288.984 24.7926V26.0355C288.984 26.7647 289.112 27.3849 289.367 27.8963C289.628 28.4077 289.99 28.7983 290.454 29.0682C290.918 29.3333 291.46 29.4659 292.08 29.4659C292.483 29.4659 292.85 29.4091 293.181 29.2955C293.513 29.1771 293.799 29.0019 294.04 28.7699C294.282 28.5379 294.467 28.2514 294.594 27.9105L296.604 28.2727C296.443 28.8646 296.155 29.383 295.738 29.8281C295.326 30.2685 294.808 30.6117 294.183 30.858C293.562 31.0994 292.854 31.2202 292.059 31.2202ZM299.096 31V20.0909H301.148V21.8239H301.262C301.461 21.2367 301.811 20.7751 302.313 20.4389C302.819 20.098 303.392 19.9276 304.032 19.9276C304.164 19.9276 304.32 19.9323 304.5 19.9418C304.685 19.9512 304.829 19.9631 304.934 19.9773V22.0085C304.848 21.9848 304.697 21.9588 304.479 21.9304C304.261 21.8973 304.043 21.8807 303.826 21.8807C303.324 21.8807 302.876 21.9872 302.483 22.2003C302.095 22.4086 301.787 22.6998 301.56 23.0739C301.333 23.4432 301.219 23.8646 301.219 24.3381V31H299.096ZM309.848 31.2415C309.157 31.2415 308.532 31.1136 307.973 30.858C307.415 30.5975 306.972 30.2211 306.645 29.7287C306.323 29.2363 306.162 28.6326 306.162 27.9176C306.162 27.3021 306.281 26.7955 306.517 26.3977C306.754 26 307.074 25.6851 307.476 25.4531C307.879 25.2211 308.328 25.0459 308.826 24.9276C309.323 24.8092 309.829 24.7192 310.346 24.6577C310.999 24.5819 311.529 24.5204 311.936 24.473C312.344 24.4209 312.64 24.3381 312.824 24.2244C313.009 24.1108 313.101 23.9261 313.101 23.6705V23.6207C313.101 23.0005 312.926 22.5199 312.576 22.179C312.23 21.8381 311.714 21.6676 311.027 21.6676C310.312 21.6676 309.749 21.8262 309.337 22.1435C308.93 22.456 308.648 22.804 308.492 23.1875L306.496 22.733C306.733 22.0701 307.078 21.535 307.533 21.1278C307.992 20.7159 308.52 20.4176 309.117 20.233C309.713 20.0436 310.341 19.9489 310.999 19.9489C311.435 19.9489 311.896 20.0009 312.384 20.1051C312.876 20.2045 313.336 20.3892 313.762 20.6591C314.193 20.929 314.545 21.3149 314.82 21.8168C315.095 22.3139 315.232 22.9602 315.232 23.7557V31H313.158V29.5085H313.073C312.935 29.7831 312.73 30.053 312.455 30.3182C312.18 30.5833 311.828 30.8035 311.397 30.9787C310.966 31.1539 310.45 31.2415 309.848 31.2415ZM310.31 29.5369C310.897 29.5369 311.399 29.4209 311.816 29.1889C312.237 28.9569 312.557 28.6539 312.775 28.2798C312.997 27.901 313.108 27.4962 313.108 27.0653V25.6591C313.033 25.7348 312.886 25.8059 312.668 25.8722C312.455 25.9337 312.211 25.9882 311.936 26.0355C311.662 26.0781 311.394 26.1184 311.134 26.1562C310.873 26.1894 310.656 26.2178 310.48 26.2415C310.069 26.2936 309.692 26.3812 309.351 26.5043C309.015 26.6274 308.745 26.8049 308.542 27.0369C308.343 27.2642 308.243 27.5672 308.243 27.946C308.243 28.4716 308.437 28.8693 308.826 29.1392C309.214 29.4044 309.709 29.5369 310.31 29.5369Z" fill="white"/>
</svg>
